<?xml version="1.0" encoding="utf-8"?>
<!-- Generator: Adobe Illustrator 16.0.0, SVG Export Plug-In . SVG Version: 6.00 Build 0)  -->
<!DOCTYPE svg PUBLIC "-//W3C//DTD SVG 1.1//EN" "http://www.w3.org/Graphics/SVG/1.1/DTD/svg11.dtd">
<svg version="1.1" id="Layer_1" xmlns="http://www.w3.org/2000/svg" xmlns:xlink="http://www.w3.org/1999/xlink" x="0px" y="0px"
	 width="27.3px" height="27.4px" viewBox="0 0 27.3 27.4" enable-background="new 0 0 27.3 27.4" xml:space="preserve">
<g>
	<path fill="#FFFFFF" d="M24.201,26.6L13.6,16L3.1,26.5c-1,1-1.9,1-2.6,0.3c-0.7-0.699-0.7-1.6,0.3-2.6l10.5-10.5L0.8,3.2
		c-1-1-1-1.9-0.3-2.6c0.7-0.7,1.6-0.7,2.6,0.3l10.5,10.5L24.201,0.8c1-1,1.899-1,2.6-0.3C27.5,1.2,27.5,2.1,26.5,3.1L15.9,13.7
		l10.6,10.6c1,1,1,1.9,0.301,2.601C26.1,27.5,25.201,27.6,24.201,26.6z"/>
</g>
</svg>
