<?xml version="1.0" encoding="utf-8"?>
<!-- Generator: Adobe Illustrator 19.0.0, SVG Export Plug-In . SVG Version: 6.00 Build 0)  -->
<svg version="1.1" id="Layer_1" xmlns="http://www.w3.org/2000/svg" xmlns:xlink="http://www.w3.org/1999/xlink" x="0px" y="0px"
	 viewBox="194 -104 1000 1000" style="enable-background:new 194 -104 1000 1000;" xml:space="preserve">
<title>instagram_icon_white</title>
<circle cx="694" cy="396" r="84.5"/>
<path d="M891.7,246.4c-8.5-22.1-26-39.6-48.1-48.1c-15.1-5.6-31-8.5-47.1-8.7c-26.7-1.2-34.8-1.5-102.5-1.5
	c-67.7,0-75.7,0.3-102.5,1.5c-16.1,0.2-32,3.1-47.1,8.7c-22.1,8.5-39.6,26-48.1,48.1c-5.6,15.1-8.5,31-8.7,47.1
	c-1.2,26.7-1.5,34.8-1.5,102.5s0.3,75.7,1.5,102.5c0.2,16.1,3.1,32,8.7,47.1c8.5,22.1,26,39.6,48.1,48.1c15.1,5.6,31,8.5,47.1,8.7
	c26.7,1.2,34.8,1.5,102.5,1.5s75.7-0.3,102.5-1.5c16.1-0.2,32-3.1,47.1-8.7c22.1-8.5,39.6-26,48.1-48.1c5.6-15.1,8.5-31,8.7-47.1
	c1.2-26.7,1.5-34.8,1.5-102.5s-0.3-75.7-1.5-102.5C900.2,277.4,897.3,261.5,891.7,246.4z M694,526.2c-71.9,0-130.2-58.3-130.2-130.2
	S622.1,265.8,694,265.8S824.2,324.1,824.2,396l0,0C824.2,467.9,765.9,526.2,694,526.2z M829.4,291.1c-16.8,0-30.4-13.6-30.4-30.4
	c0-16.8,13.6-30.4,30.4-30.4s30.4,13.6,30.4,30.4C859.8,277.4,846.2,291.1,829.4,291.1C829.4,291.1,829.4,291.1,829.4,291.1z"/>
<path d="M694-89.7c-268.3,0-485.7,217.5-485.7,485.7S425.7,881.7,694,881.7c268.3,0,485.7-217.5,485.7-485.7
	c0.2-268-216.9-485.5-484.9-485.7C694.5-89.7,694.3-89.7,694-89.7z M946.1,500.6c-0.4,21-4.4,41.9-11.8,61.6
	c-13.2,34.1-40.1,61-74.2,74.2c-19.7,7.4-40.5,11.4-61.6,11.8c-27,1.2-35.7,1.5-104.6,1.5c-68.9,0-77.5-0.3-104.6-1.5
	c-21-0.4-41.9-4.4-61.6-11.8c-34.1-13.2-61-40.1-74.2-74.2c-7.4-19.7-11.4-40.5-11.8-61.6c-1.2-27-1.5-35.7-1.5-104.6
	s0.3-77.5,1.5-104.6c0.4-21,4.4-41.9,11.8-61.6c13.2-34.1,40.1-61,74.2-74.2c19.7-7.4,40.5-11.4,61.6-11.8
	c27-1.2,35.7-1.5,104.6-1.5c68.9,0,77.5,0.3,104.6,1.5c21,0.4,41.9,4.4,61.6,11.8c34.1,13.2,61,40.1,74.2,74.2
	c7.4,19.7,11.4,40.5,11.8,61.6c1.2,27,1.5,35.7,1.5,104.6C947.6,464.9,947.3,473.5,946.1,500.6z"/>
</svg>
