<?xml version="1.0" encoding="utf-8"?>
<!-- Generator: Adobe Illustrator 16.0.0, SVG Export Plug-In . SVG Version: 6.00 Build 0)  -->
<!DOCTYPE svg PUBLIC "-//W3C//DTD SVG 1.1//EN" "http://www.w3.org/Graphics/SVG/1.1/DTD/svg11.dtd">
<svg version="1.1" id="Layer_1" xmlns="http://www.w3.org/2000/svg" xmlns:xlink="http://www.w3.org/1999/xlink" x="0px" y="0px"
	 width="1000px" height="1000px" viewBox="0 0 1000 1000" enable-background="new 0 0 1000 1000" xml:space="preserve">
<title>instagram_icon_white</title>
<circle fill="#FFFFFF" cx="500" cy="500.001" r="84.532"/>
<path fill="#FFFFFF" d="M697.691,350.437c-8.532-22.115-26.012-39.595-48.127-48.127c-15.081-5.588-31.01-8.542-47.092-8.733
	c-26.74-1.221-34.759-1.479-102.473-1.479c-67.715,0-75.732,0.258-102.475,1.479c-16.081,0.192-32.009,3.146-47.09,8.733
	c-22.115,8.532-39.595,26.012-48.127,48.127c-5.587,15.081-8.542,31.01-8.733,47.091c-1.221,26.74-1.479,34.759-1.479,102.473
	s0.258,75.732,1.479,102.475c0.191,16.081,3.146,32.009,8.733,47.09c8.532,22.115,26.012,39.595,48.127,48.127
	c15.081,5.588,31.01,8.542,47.092,8.733c26.736,1.221,34.755,1.479,102.473,1.479s75.736-0.258,102.473-1.479
	c16.082-0.191,32.011-3.146,47.092-8.733c22.115-8.532,39.596-26.012,48.127-48.127c5.589-15.081,8.543-31.01,8.733-47.092
	c1.221-26.74,1.479-34.759,1.479-102.473s-0.258-75.732-1.479-102.475C706.233,381.445,703.279,365.517,697.691,350.437z
	 M500,630.226c-71.921,0-130.225-58.304-130.225-130.225S428.079,369.776,500,369.776s130.225,58.304,130.225,130.225l0,0
	C630.224,571.922,571.921,630.225,500,630.226z M635.369,395.062c-16.807,0-30.431-13.625-30.431-30.432
	c0.001-16.807,13.626-30.431,30.433-30.43s30.431,13.625,30.43,30.432c0.001,16.805-13.621,30.429-30.427,30.43
	C635.373,395.062,635.371,395.062,635.369,395.062z"/>
<path fill="#FFFFFF" d="M500,14.287c-268.252,0-485.714,217.461-485.714,485.714S231.748,985.715,500,985.715
	c268.253,0,485.715-217.461,485.715-485.714c0.225-268.027-216.87-485.489-484.897-485.714
	C500.545,14.286,500.272,14.286,500,14.287z M752.068,604.557c-0.421,21.039-4.406,41.854-11.787,61.559
	c-13.174,34.063-40.103,60.992-74.166,74.167c-19.706,7.38-40.521,11.365-61.559,11.786c-27.049,1.235-35.685,1.527-104.557,1.527
	c-68.873,0-77.508-0.293-104.558-1.527c-21.038-0.421-41.853-4.406-61.558-11.786c-34.064-13.175-60.993-40.104-74.167-74.167
	c-7.38-19.705-11.366-40.52-11.787-61.559c-1.235-27.049-1.528-35.684-1.528-104.557s0.293-77.508,1.528-104.557
	c0.421-21.038,4.407-41.852,11.788-61.557c13.174-34.063,40.103-60.992,74.166-74.167c19.706-7.38,40.521-11.366,61.559-11.787
	c27.049-1.235,35.685-1.527,104.557-1.527c68.873,0,77.508,0.293,104.558,1.527c21.038,0.421,41.853,4.406,61.559,11.787
	c34.062,13.175,60.991,40.103,74.165,74.167c7.381,19.706,11.366,40.52,11.787,61.558c1.234,27.049,1.527,35.685,1.527,104.557
	C753.596,568.874,753.303,577.509,752.068,604.557z"/>
</svg>
