<?xml version="1.0" encoding="utf-8"?>
<!-- Generator: Adobe Illustrator 16.0.0, SVG Export Plug-In . SVG Version: 6.00 Build 0)  -->
<!DOCTYPE svg PUBLIC "-//W3C//DTD SVG 1.1//EN" "http://www.w3.org/Graphics/SVG/1.1/DTD/svg11.dtd">
<svg version="1.1" id="Layer_1" xmlns="http://www.w3.org/2000/svg" xmlns:xlink="http://www.w3.org/1999/xlink" x="0px" y="0px"
	 width="24.525px" height="37.062px" viewBox="0 0 24.525 37.062" enable-background="new 0 0 24.525 37.062" xml:space="preserve">
<g>
	<path fill="#FFFFFF" d="M12.263,0C5.502,0,0,5.501,0,12.263c0,2.722,1.737,7.159,5.313,13.572c2.526,4.531,5.017,8.311,5.125,8.47
		l1.824,2.758l1.824-2.766c0.101-0.159,2.591-3.938,5.125-8.469c3.575-6.406,5.313-10.852,5.313-13.573
		C24.525,5.501,19.023,0,12.263,0z M12.263,18.531c-3.511,0-6.355-2.845-6.355-6.355S8.752,5.82,12.263,5.82
		s6.355,2.845,6.355,6.355S15.773,18.531,12.263,18.531z"/>
</g>
</svg>
