<?xml version="1.0" encoding="utf-8"?>
<!-- Generator: Adobe Illustrator 19.0.0, SVG Export Plug-In . SVG Version: 6.00 Build 0)  -->
<svg version="1.1" id="Layer_1" xmlns="http://www.w3.org/2000/svg" xmlns:xlink="http://www.w3.org/1999/xlink" x="0px" y="0px"
	 viewBox="-290 381.7 30.3 30.3" style="enable-background:new -290 381.7 30.3 30.3;" xml:space="preserve">
<path d="M-274.8,381.7c-8.4,0-15.2,6.8-15.2,15.2c0,8.4,6.8,15.2,15.2,15.2c8.4,0,15.2-6.8,15.2-15.2
	C-259.7,388.5-266.5,381.7-274.8,381.7z M-267.9,393.3c0,0.2,0,0.3,0,0.5c0,4.7-3.6,10.2-10.2,10.2c-2,0-3.9-0.6-5.5-1.6
	c0.3,0,0.6,0.1,0.9,0.1c1.7,0,3.2-0.6,4.5-1.5c-1.6,0-2.9-1.1-3.4-2.5c0.2,0,0.4,0.1,0.7,0.1c0.3,0,0.6,0,0.9-0.1
	c-1.6-0.3-2.9-1.8-2.9-3.5c0,0,0,0,0,0c0.5,0.3,1,0.4,1.6,0.4c-1-0.6-1.6-1.7-1.6-3c0-0.7,0.2-1.3,0.5-1.8c1.8,2.2,4.4,3.6,7.4,3.8
	c-0.1-0.3-0.1-0.5-0.1-0.8c0-2,1.6-3.6,3.6-3.6c1,0,2,0.4,2.6,1.1c0.8-0.2,1.6-0.5,2.3-0.9c-0.3,0.8-0.8,1.5-1.6,2
	c0.7-0.1,1.4-0.3,2.1-0.6C-266.6,392.1-267.2,392.8-267.9,393.3z"/>
</svg>
