<?xml version="1.0" encoding="utf-8"?>
<!-- Generator: Adobe Illustrator 16.0.0, SVG Export Plug-In . SVG Version: 6.00 Build 0)  -->
<!DOCTYPE svg PUBLIC "-//W3C//DTD SVG 1.1//EN" "http://www.w3.org/Graphics/SVG/1.1/DTD/svg11.dtd">
<svg version="1.1" id="Layer_1" xmlns="http://www.w3.org/2000/svg" xmlns:xlink="http://www.w3.org/1999/xlink" x="0px" y="0px"
	 width="30.339px" height="30.339px" viewBox="0 0 30.339 30.339" enable-background="new 0 0 30.339 30.339" xml:space="preserve">
<path fill="#FFFFFF" d="M15.169,0C6.792,0,0,6.792,0,15.17s6.792,15.169,15.169,15.169c8.377,0,15.169-6.791,15.169-15.169
	S23.547,0,15.169,0z M22.127,11.602c0.008,0.153,0.011,0.309,0.011,0.464c0,4.744-3.61,10.215-10.214,10.215
	c-2.027,0-3.915-0.595-5.503-1.613c0.281,0.033,0.567,0.051,0.856,0.051c1.682,0,3.23-0.574,4.459-1.537
	c-1.571-0.029-2.897-1.067-3.354-2.493c0.219,0.042,0.444,0.064,0.675,0.064c0.327,0,0.645-0.044,0.946-0.126
	c-1.643-0.33-2.88-1.781-2.88-3.521c0-0.015,0-0.03,0-0.045c0.484,0.269,1.038,0.431,1.626,0.449
	c-0.963-0.644-1.597-1.743-1.597-2.988c0-0.658,0.177-1.274,0.486-1.805c1.771,2.172,4.416,3.601,7.4,3.751
	c-0.062-0.263-0.093-0.537-0.093-0.818c0-1.982,1.607-3.59,3.59-3.59c1.033,0,1.966,0.436,2.621,1.134
	c0.817-0.161,1.586-0.46,2.279-0.871c-0.269,0.838-0.838,1.542-1.578,1.985c0.726-0.086,1.418-0.279,2.062-0.564
	C23.438,10.463,22.828,11.095,22.127,11.602z"/>
</svg>
